<svg xmlns="http://www.w3.org/2000/svg" width="100" height="200" viewBox="0 0 100 200">
  <g id="Group_7" data-name="Group 7" transform="translate(-429 -2193)">
    <g id="Rectangle_3" data-name="Rectangle 3" transform="translate(429 2193)" fill="none" stroke="#fff" stroke-linejoin="round" stroke-width="20">
      <path d="M49.669,0H50a50,50,0,0,1,50,50V150a50,50,0,0,1-50,50h0A50,50,0,0,1,0,150V49.669A49.669,49.669,0,0,1,49.669,0Z" stroke="none"/>
      <path d="M49.716,10H50A40,40,0,0,1,90,50V150a40,40,0,0,1-40,40h0a40,40,0,0,1-40-40V49.716A39.716,39.716,0,0,1,49.716,10Z" fill="none"/>
    </g>
    <g id="Ellipse_1" data-name="Ellipse 1" transform="translate(444 2223)" fill="#fff" stroke="#707070" stroke-width="1">
      <circle cx="35" cy="35" r="35" stroke="none"/>
      <circle cx="35" cy="35" r="34.5" fill="none"/>
    </g>
  </g>
</svg>
